<svg version="1.1" xmlns="http://www.w3.org/2000/svg" xmlns:xlink="http://www.w3.org/1999/xlink">
  <symbol id="hit-svg" viewBox="0 0 61 61">
    <circle fill="#FFFFFF" cx="30.5" cy="30.5" r="30.5" />
    <g>
      <path fill="#231F20" d="M19.985,18.27c-0.915,2.683-1.718,5.384-2.472,8.094c-0.543-2.863-0.921-5.756-0.958-8.715
		c-0.005-0.431-1.939-0.11-1.932,0.518c0.052,4.243,0.8,8.354,1.747,12.432c-1.196,4.58-2.311,9.18-3.579,13.771
		c-0.109,0.394,1.771,0.138,1.904-0.344c0.902-3.265,1.726-6.535,2.556-9.8c0.805,3.204,1.644,6.407,2.273,9.657
		c0.098,0.508,2.041,0.045,1.932-0.518c-0.864-4.462-2.12-8.836-3.146-13.247c1.068-4.086,2.202-8.157,3.578-12.191
		C22.012,17.566,20.151,17.782,19.985,18.27z" />
      <path fill="#231F20" d="M34.395,18.798c0.049-1.047-1.919-0.794-1.963,0.128c-0.004,0.08-0.004,0.159-0.008,0.238
		c-0.039,0.065-0.084,0.128-0.101,0.204c-1.004,4.463-2.611,8.729-4.056,13.06c-0.644,1.93-1.139,3.898-1.666,5.856
		c-0.139-6.623-0.135-13.237-0.165-19.871c-0.005-1.042-1.965-0.769-1.961,0.134c0.037,8.337,0.018,16.641,0.303,24.971
		c-0.031,0.095-0.05,0.193-0.034,0.301c0.021,0.148,0.042,0.297,0.064,0.445c0.123,0.856,1.959,0.48,1.944-0.317
		c0.005-0.011,0.016-0.018,0.021-0.029c1.636-4.171,2.478-8.591,3.894-12.838c0.521-1.558,1.048-3.108,1.561-4.662
		c-0.071,5.987,0.058,11.969,0.211,17.961c0.026,1.012,1.58,0.771,1.91,0.065c0.019-0.04,0.037-0.079,0.056-0.119
		c0.112-0.239,0.088-0.423-0.015-0.558C34.179,35.434,34.001,27.132,34.395,18.798z" />
      <path fill="#231F20" d="M47.32,17.66c-3.158,0.38-6.312,0.227-9.478,0.048c-0.491-0.028-2.24,0.851-1.221,0.908
		c1.093,0.062,2.182,0.109,3.271,0.145c-0.093,0.081-0.161,0.167-0.157,0.265c0.295,8.408-1.054,17.239,0.191,25.564
		c0.063,0.424,2.01,0.005,1.932-0.518c-1.229-8.229,0.069-16.951-0.185-25.27c1.776,0.012,3.551-0.052,5.33-0.266
		C47.86,18.434,48.672,17.497,47.32,17.66z" />
    </g>
  </symbol>

  <symbol id="ice-cream-svg" viewBox="0 0 49 49">
    <defs>
      <style>
        .cls-1 {
          fill: #323232;
          fill-rule: evenodd;
        }
      </style>
    </defs>
    <path id="ice-cream" class="cls-1" d="M77.454,1381.45a8.575,8.575,0,0,0-14.639,6.06v14.68a0.808,0.808,0,0,0,.809.81H79.157a0.808,0.808,0,0,0,.809-0.81v-14.68A8.512,8.512,0,0,0,77.454,1381.45Zm0.894,19.93H64.433v-10.89c0.045,0.05.092,0.1,0.143,0.16a2.619,2.619,0,0,0,4.309,0,1.185,1.185,0,0,1,.946-0.6,1,1,0,0,1,.309.43,10.746,10.746,0,0,1,.488,1.22,9.606,9.606,0,0,0,.7,1.65,1.753,1.753,0,0,0,3.237,0,9.614,9.614,0,0,0,.7-1.65,10.67,10.67,0,0,1,.488-1.22,1,1,0,0,1,.309-0.43,1.186,1.186,0,0,1,.946.6,3.205,3.205,0,0,0,1.346,1v9.73Zm-9.007,8.58a2.049,2.049,0,1,0,4.1,0v-6.16h-4.1v6.16ZM71.5,1371.8a23.7,23.7,0,1,1-23.7,23.7A23.7,23.7,0,0,1,71.5,1371.8Zm0,45.4a21.7,21.7,0,1,1,21.7-21.7A21.722,21.722,0,0,1,71.5,1417.2Z" transform="translate(-47.813 -1371.81)" />
  </symbol>

  <symbol id="leaf-svg" viewBox="0 0 49 49">
    <defs>
      <style>
        .cls-2 {
          fill: #323232;
          fill-rule: evenodd;
        }
      </style>
    </defs>
    <path id="leaf" class="cls-2" d="M71.437,1499.62s-22.24-10.18,0-32.75C93.677,1489.44,71.437,1499.62,71.437,1499.62Zm7.516-17.18-6.536,4.16h0l-0.021,3.68,6.894-4.41A13.37,13.37,0,0,0,78.953,1482.44Zm-15.39,3.19,6.833,4.48v-3.62l-6.453-4.15A13.622,13.622,0,0,0,63.563,1485.63Zm6.833-1.52v-3.63L66,1477.1a21.756,21.756,0,0,0-1.464,3.24Zm0-6.09v-7.04a39.184,39.184,0,0,0-3.356,4.42Zm2,0.28,3.629-2.6a39.493,39.493,0,0,0-3.629-4.82v7.42Zm0.021,2.3h0l-0.021,3.68,5.981-3.85a21.714,21.714,0,0,0-1.337-3.01Zm6.443,7.9-6.443,4.1h0l-0.021,4.16A15.3,15.3,0,0,0,78.859,1488.5Zm-8.463,8.2v-4.21l-6.417-4.13C65.085,1492.5,68.3,1495.29,70.4,1496.7Zm1.1-36.9a23.7,23.7,0,1,1-23.7,23.7A23.7,23.7,0,0,1,71.5,1459.8Zm0,45.4a21.7,21.7,0,1,1,21.7-21.7A21.722,21.722,0,0,1,71.5,1505.2Z" transform="translate(-47.813 -1459.81)" />
  </symbol>

  <symbol id="cow-svg" viewBox="0 0 49 49">
    <defs>
      <style>
        .cls-3 {
          fill: #323232;
          fill-rule: evenodd;
        }
      </style>
    </defs>
    <path id="cow" class="cls-3" d="M652.578,1395a2.42,2.42,0,0,1-2.127,1.04,9.366,9.366,0,0,1-3.256-.84,17.086,17.086,0,0,1-1.576,8.35,5.2,5.2,0,0,1,.517,3.08c-0.488,3.38-4.283,5.23-8.524,5.23s-8.018-1.85-8.48-5.23a5.164,5.164,0,0,1,.33-2.62,17.331,17.331,0,0,1-1.786-8.73,8.929,8.929,0,0,1-3.065.76,2.42,2.42,0,0,1-2.127-1.04,2.326,2.326,0,0,1-.162-2.22c0.812-1.91,3.593-2.74,4.75-3.01l0.1-.02c-1.4-2.9-.723-7.6-0.2-9.19l3.057,0.25c0.056,1,.766,2.88,3.436,5.01l1.585,1.09a12.914,12.914,0,0,1,2.4-.23,12.732,12.732,0,0,1,2.289.21l1.692-1.16c2.67-2.13,3.379-4.01,3.435-5.01l3.058-.26c0.528,1.6,1.207,6.35-.224,9.24l0.294,0.07c1.157,0.27,3.937,1.1,4.75,3.01A2.326,2.326,0,0,1,652.578,1395Zm-25.069-3.28s-2.859.66-3.362,1.85,3.155-.14,3.835-0.7A2.317,2.317,0,0,1,627.509,1391.72Zm3.3,0.07c-1.752,2.75-1.578,7,.467,11.37l0.367,0.78-0.318.8a3.209,3.209,0,0,0-.208,1.62c0.329,2.41,3.6,3.5,6.5,3.5s6.2-1.1,6.545-3.52a3.177,3.177,0,0,0-.33-1.9l-0.416-.84,0.378-.86c1.878-4.25,1.97-8.37.244-11.02-1.3-1.99-3.575-3.04-6.587-3.04C634.4,1388.68,632.1,1389.75,630.806,1391.79Zm20.093,1.78c-0.5-1.19-3.361-1.85-3.361-1.85a2.328,2.328,0,0,1-.474,1.15C647.745,1393.43,651.4,1394.75,650.9,1393.57Zm-18.57-6.1s-3.595-2.48-3.735-5.02c-0.4,2.18-.584,5.62.7,6.99A21,21,0,0,1,632.329,1387.47Zm10.232-.1s3.595-2.47,3.736-5.01c0.4,2.17.584,5.61-.705,6.98A22.893,22.893,0,0,0,642.561,1387.37Zm-5.378-15.57a23.7,23.7,0,1,1-23.7,23.7A23.7,23.7,0,0,1,637.183,1371.8Zm0,45.4a21.7,21.7,0,1,1,21.7-21.7A21.722,21.722,0,0,1,637.183,1417.2Z" transform="translate(-613.469 -1371.81)" />
  </symbol>

  <symbol id="thermometer-svg" viewBox="0 0 49 49">
    <defs>
      <style>
        .cls-4 {
          fill: #323232;
          fill-rule: evenodd;
        }
      </style>
    </defs>
    <path id="thermometer" class="cls-4" d="M637.023,1498.33a6.814,6.814,0,0,1-6.823-6.77,8.038,8.038,0,0,1,1.822-4.6v-14.84a5,5,0,0,1,10,0v14.91a7.629,7.629,0,0,1,1.778,4.53A6.775,6.775,0,0,1,637.023,1498.33Zm0-2a4.8,4.8,0,0,1-4.8-4.77,5.237,5.237,0,0,1,1.845-3.78v-15.66a3,3,0,0,1,6,0v15.72a5.092,5.092,0,0,1,1.754,3.72A4.8,4.8,0,0,1,637.023,1496.33Zm2.706-4.91a2.774,2.774,0,1,1-3.675-2.61v-16.84a0.949,0.949,0,0,1,1.9,0v16.87A2.765,2.765,0,0,1,639.729,1491.42ZM645,1475h4a1,1,0,0,1,0,2h-4A1,1,0,0,1,645,1475Zm0-4h4a1,1,0,0,1,0,2h-4A1,1,0,0,1,645,1471Zm0,8h4a1,1,0,0,1,0,2h-4A1,1,0,0,1,645,1479Zm0,4h4a1,1,0,0,1,0,2h-4A1,1,0,0,1,645,1483Zm-7.817-23.2a23.7,23.7,0,1,1-23.7,23.7A23.7,23.7,0,0,1,637.183,1459.8Zm0,45.4a21.7,21.7,0,1,1,21.7-21.7A21.722,21.722,0,0,1,637.183,1505.2Z" transform="translate(-613.469 -1459.81)" />
  </symbol>

  <symbol id="heart-svg" viewBox="0 0 15 13">
    <path fill="#FFFFFF" d="M10.799,0c-1.35,0-2.551,0.65-3.3,1.661C6.75,0.65,5.549,0,4.199,0C1.875,0,0,1.806,0,4.044
	C0,7.223,7.499,13,7.499,13s7.499-5.777,7.499-8.956C14.998,1.806,13.123,0,10.799,0z" />
  </symbol>
  
  <symbol id="down-svg" viewBox="0 0 11 10">
    <polyline fill="#dee5e1" points="5.5,10 0,0 11,0"/>
  </symbol>
  
  <symbol id="down-hover-svg" viewBox="0 0 11 10">
    <polyline fill="#323232" points="5.5,10 0,0 11,0"/>
  </symbol>
  
  <symbol id="checkbox-svg" viewBox="0 0 27 23">
	<g>
		<polygon fill="#dee5e1" points="7.285,7.486 4.456,10.315 12.239,18.098 26.171,4.166 23.343,1.337 12.239,12.439 		"/>
		<path fill="#dee5e1" d="M21,20c0,0.542-0.458,1-1,1H3c-0.542,0-1-0.458-1-1V3c0-0.542,0.458-1,1-1h16.908l1.585-1.585C21.051,0.158,20.545,0,20,0
			H3C1.35,0,0,1.35,0,3v17c0,1.65,1.35,3,3,3h17c1.65,0,3-1.35,3-3v-9.829l-2,2V20z"/>
	</g>
  </symbol>
  
  <symbol id="checkbox-hover-svg" viewBox="0 0 27 23">
	<g>
		<polygon fill="#FFFFFF" points="7.285,7.486 4.456,10.315 12.239,18.098 26.171,4.166 23.343,1.337 12.239,12.439 		"/>
		<path fill="#FFFFFF" d="M21,20c0,0.542-0.458,1-1,1H3c-0.542,0-1-0.458-1-1V3c0-0.542,0.458-1,1-1h16.908l1.585-1.585C21.051,0.158,20.545,0,20,0
			H3C1.35,0,0,1.35,0,3v17c0,1.65,1.35,3,3,3h17c1.65,0,3-1.35,3-3v-9.829l-2,2V20z"/>
	</g>
  </symbol>
  
  <symbol id="checkbox-disabled-svg" viewBox="0 0 27 23">
	<g>
		<polygon fill="#b5c4bc" points="7.285,7.486 4.456,10.315 12.239,18.098 26.171,4.166 23.343,1.337 12.239,12.439 		"/>
		<path fill="#b5c4bc" d="M21,20c0,0.542-0.458,1-1,1H3c-0.542,0-1-0.458-1-1V3c0-0.542,0.458-1,1-1h16.908l1.585-1.585C21.051,0.158,20.545,0,20,0
			H3C1.35,0,0,1.35,0,3v17c0,1.65,1.35,3,3,3h17c1.65,0,3-1.35,3-3v-9.829l-2,2V20z"/>
	</g>
  </symbol>

  <view id="hit-svg-view" viewBox="0 0 61 61" />
  <view id="ice-cream-svg-view" viewBox="0 80 49 49" />
  <view id="leaf-svg-view" viewBox="0 140 49 49" />
  <view id="cow-svg-view" viewBox="0 200 49 49" />
  <view id="thermometer-svg-view" viewBox="0 260 49 49" />
  <view id="heart-svg-view" viewBox="0 320 15 13" />
  <view id="down-svg-view" viewBox="0 380 11 10" />
  <view id="down-hover-svg-view" viewBox="0 440 11 10" />
  <view id="checkbox-svg-view" viewBox="0 500 24 20" />
  <view id="checkbox-hover-svg-view" viewBox="0 560 24 20" />
  <view id="checkbox-disabled-svg-view" viewBox="0 620 24 20" />

  <use xlink:href="#hit-svg" width="61" height="61" x="0" y="0"></use>
  <use xlink:href="#ice-cream-svg" width="49" height="49" x="0" y="80"></use>
  <use xlink:href="#leaf-svg" width="49" height="49" x="0" y="140"></use>
  <use xlink:href="#cow-svg" width="49" height="49" x="0" y="200"></use>
  <use xlink:href="#thermometer-svg" width="49" height="49" x="0" y="260"></use>
  <use xlink:href="#heart-svg" width="15" height="13" x="0" y="320"></use>
  <use xlink:href="#down-svg" width="11" height="10" x="0" y="380"></use>
  <use xlink:href="#down-hover-svg" width="11" height="10" x="0" y="440"></use>
  <use xlink:href="#checkbox-svg" width="24" height="20" x="0" y="500"></use>
  <use xlink:href="#checkbox-hover-svg" width="24" height="20" x="0" y="560"></use>
  <use xlink:href="#checkbox-disabled-svg" width="24" height="20" x="0" y="620"></use>
</svg>
